<svg id="Layer_1" xmlns="http://www.w3.org/2000/svg" viewBox="0 0 600 600"><style>.st0{fill:#1d1d1b}.st1{fill:#9bd3b3}.st2{fill:#010101}</style><path class="st0" d="M130.5 293.3H191v-42L106 202l-85.9 49.5V350l85.5 48.8 85.5-49v-42.1h-61.9l-5.4 3v.1l-17.4 10.1-17-10v-20l17-10 15.1 8.6 6.7 3.8h2.3zm22.3-13.1h-20.3l-26.4-15-30.6 17.9v35.6l30.6 18 27.5-15.9h17.5v6l-45.6 26.1-45.5-26v-52.5l45.9-26.4 44.5 25.9 3.4 2.1 7.3 4.4h.1l-8.4-.2zm24.6 40.6v21.1l-71.8 41.2-71.8-41v-82.7l72.3-41.6 71.4 41.4v14.5l-16-9.2-55.5-32.2-59.6 34.3v68.3l59.2 33.9 59.2-34v-13.9h12.6z"/><path class="st1" d="M161.1 280.2l-7.3-4.4-3.4-2.1v.1l-44.5-25.9L60 274.3v52.6l45.6 26 45.6-26.1v-6h-17.5l-27.5 15.9-30.6-18v-35.6l30.6-17.9 26.4 15h28.6z"/><path class="st2" d="M332.9 273.1l-14.7 9c-4.9-7.4-12.5-11.8-22.1-11.8-15.5 0-27 11.4-27 28 0 17.2 11.9 28 27 28 9.5 0 17.2-4.2 22.3-11.7l13.9 10c-7.7 11.1-20.4 18.1-36.1 18.1-26.4 0-44.9-18.6-44.9-44.4 0-25.7 18.5-44.4 44.9-44.4 15.9 0 29.7 7.3 36.7 19.2zm30.7 68v-85.6h17.1v85.6h-17.1zm69.5 0H416v-85.6h34.9c20.4 0 31.3 10.6 31.3 27.2 0 16.4-10.9 27.1-31.2 27.1h-18v31.3zm0-46.9h17.5c9.4 0 14.1-3.7 14.1-11.5 0-7.6-4.8-11.5-14.1-11.5h-17.5v23zm113.4-24.4c-9.5 0-16.4 3.8-16.4 10.3 0 6.2 7.4 8.3 17.7 9.9l4.8.8c15.3 2.4 27.3 9.1 27.3 24 0 18.8-16.6 27.9-35 27.9-13 0-26.9-3.8-36.1-11.2l8.9-13.8c6.2 4.9 16.2 9.2 27.3 9.2 9.5 0 16.8-3.7 16.8-10.3 0-5.9-6.2-8.1-18.2-10l-5.4-.9c-15.1-2.4-26.1-9-26.1-24.5 0-17.9 15.9-27.1 34.1-27.1 12 0 21.9 2.7 32.7 9.1l-8.1 13.9c-6.8-4.2-14.9-7.3-24.3-7.3z"/></svg>