<svg id="Layer_1" xmlns="http://www.w3.org/2000/svg" viewBox="0 0 600 600"><style>.st0{fill:none;stroke:#1d1d1b;stroke-width:.2332;stroke-miterlimit:10}</style><path class="st0" d="M326.5 369.1c12.9-2.8 25.8-6.7 36.9-13.9C374.5 348 383.6 337 386 324c1.1-5.7.7-11.9-2.4-16.8-2.3-3.7-6-6.3-9.7-8.5-15.4-9.5-34.7-15.1-51.7-8.8-20.5 7.6-31 29.4-39 50.1-1.1 2.9-4.2 4.7-7.3 4.1-8.8-1.7-11.8-2.5-18.4-9.7-1-1.1-10.9-2.8-12.4-3.2-1.7-.4-10.9 2-12.4 2.9-8.4 4.7-1.2 5.7.7 15.2.6 3.1 1.9 6.2 1.1 9.2-1.1 4.4-6 7.2-6.4 11.7-1.3 13.7 87.2 1.4 98.4-1.1z"/><path class="st0" d="M324.1 283.9c-22.8 6.2-36.5 25.9-47.9 44.7-.5.8-1.1 1.5-1.8 2-1.8 1.4-4.1 2.1-6.5 1.8-2.7-.3-5-.6-6.9-.8-4.8-.5-7.3-1.8-12.3-5-.1-.1-.4-.2-.8-.2-2.7-.5-10.1-.8-11.8-.6-2 .3-10.9 3.1-12.8 4.4-8.6 5.9-3 8.1-2.4 18.2.2 3.6.8 7.3-.3 10.9-.3 1.1-.9 2.2-1.5 3.2-.8 1.3-1.7 2.6-2.4 3.9-1.2 2.3-1.8 4.4-1.4 6.8.7 4.3 8.7 6.4 19.9 7.3 28 2.3 73.9-2.7 85.6-3.9 5.9-.6 11.9-1.4 17.8-2.3 2.3-.4 4.7-.7 6.9-1.6 5.7-2.2 8.5-5.9 12.7-9.3l.9-.6c1-.6 2-.6 2.9-.8.6-.1 1.2-.2 1.8-.4 1.9-.4 3.8-1.8 4.7-3.3.2-.1.3-.4.5-.5 2.5-2.2 5.3-4.8 8.1-7.1 1-.8 2.8-1.9 3.7-2.7.9-.9 2-1.6 2.9-2.6.8-.9 1.4-1.8 2.1-2.8 3.8-5.9 6.6-12.5 8.3-19.4.6-2.5 1.1-5 1-7.5-.2-3-1.3-5.8-2.2-8.7-.7-2.3-1.2-4.5-1.9-6.6-1.1-3.5-2.4-6.6-4.8-9.4-1.3-1.5-2.8-2.8-4.4-4.1-3.1-2.4-6.7-4.6-10.5-5.8-2.1-.7-4.2-1.1-6.3-1.5-4-.6-8.1-1-11.9-.8-3.6.2-8-.6-11.7.1-5.3 1.4-11.3 3.4-17.3 5z"/><path class="st0" d="M326 278c-25 4.8-42 22.3-56.9 39.2-.6.7-1.4 1.3-2.2 1.8-2 1.3-4.6 1.9-7.2 1.7-2.9-.2-5.3-.2-7.5-.2-5.1.2-8 .6-12.6-1.8-.2 0-.4-.1-.8 0-2.8.2-9.9.7-12 1.6-2.4 1-10.9 4.2-13.2 6-8.9 6.9-4.9 10.5-5.6 21.3-.3 4.2-.3 8.4-1.7 12.5-.5 1.3-1.1 2.6-1.7 3.8-.9 1.6-1.9 3.2-2.5 4.8-1 2.8-.8 5.2.2 7.7 1.8 4.5 10.1 6.8 21.3 8.3 29.7 3.8 75.8.1 91.3-.5 7.6-.3 15.2-.7 22.8-1.3 3-.2 6.1-.5 8.9-1.6 7.4-3 9.4-9 14.2-13.9.3-.3.7-.6 1.1-.9 1.3-.8 2.5-.5 3.7-.4.8.1 1.6.1 2.4 0 2.5-.1 5-2 5.6-4.2.2-.1.2-.5.4-.6 1.8-3.1 5.3-5.8 8.6-8.1.9-.6 3.6-1.8 4.4-2.5 1.1-.9 2.4-1.4 3.4-2.5.9-.9 1.6-2.1 2.3-3.2 4-6.9 7.1-14.2 9.3-21.9.9-3.1 1.8-6.3 1.4-9.5-.4-3.8-2.3-7.1-3.5-10.8-.9-2.9-1.3-5.8-1.6-8.6-.6-4.6-1.2-8.8-3.7-12.7-1.3-2.1-3.1-4-5-5.7-3.4-3-7.4-5.6-11.7-6.7-2.5-.6-4.8-.7-7.1-.6-4.4.1-9 .3-12.9 1.5-3.8 1.1-9-.2-13 1.3-5.3 2.1-12 5.4-18.9 6.7z"/><path class="st0" d="M327.9 272.1c-27.2 3.5-47.4 18.7-65.8 33.8-.8.6-1.6 1.2-2.6 1.6-2.3 1.1-5.1 1.7-7.8 1.7-3.1-.1-5.7.1-8 .5-5.4.9-8.4 2.4-13 1.5-.2.1-.4.1-.8.2-3.1.9-9.7 2.3-12.2 3.8-2.8 1.7-10.9 5.2-13.7 7.6-9.2 7.9-6.9 12.9-8.7 24.4-.7 4.7-1.4 9.4-3.2 14.2-.6 1.5-1.3 2.9-2 4.3-1 1.8-2.1 3.7-2.6 5.6-.8 3.3.2 6 1.8 8.6 2.9 4.7 11.6 7.4 22.8 9.2 31.5 5.2 77.6 3.1 97 2.9 9.3-.1 18.6-.1 27.8-.4 3.7-.1 7.5-.2 10.9-1.7 9.2-3.9 10.2-12.2 15.6-18.5.4-.4.8-.8 1.3-1.1 1.6-1 3.1-.4 4.5-.1.9.2 1.9.3 2.9.4 3.1.2 6.2-2.3 6.6-5.2.1-.1.2-.7.3-.7 1.3-3.7 4.9-7.5 9.1-9.2.7-.7 4.5-1.5 5.2-2.2 1.4-.6 2.8-1.3 4-2.4 1.1-1 1.8-2.3 2.5-3.6 4.3-7.8 7.7-16 10.3-24.4 1.2-3.7 2.4-7.6 1.9-11.5-.6-4.6-3.4-8.4-4.8-12.9-1.1-3.5-1.3-7-1.4-10.5-.1-5.6.1-11-2.5-16.1-1.4-2.7-3.4-5.1-5.6-7.2-3.6-3.5-8.1-6.7-13-7.6-2.8-.5-5.5-.2-8 .2-4.8.8-9.9 1.7-13.9 3.8-3.9 2.1-10.1.2-14.3 2.5-5.3 2.9-12.8 7.6-20.6 8.5z"/><path class="st0" d="M329.8 266.3c-29.4 2.2-52.9 15.1-74.7 28.4-.9.5-1.9 1-2.9 1.4-2.5 1-5.6 1.6-8.5 1.6-3.2.1-6.1.4-8.6 1.1-5.8 1.6-8.8 4.3-13.3 4.8-.2.1-.5.2-.8.4-3.3 1.7-9.5 3.9-12.4 6-3.1 2.3-11 6.2-14.1 9.1-9.6 8.8-9 15.4-11.8 27.5-1.2 5.3-2.4 10.5-4.6 15.8-.7 1.7-1.5 3.3-2.3 4.9-1.1 2.1-2.3 4.2-2.7 6.4-.6 3.8 1.1 6.7 3.3 9.5 4 4.9 13 7.9 24.2 10.2 33.2 6.8 79.4 5.6 102.7 6.3 10.9.3 21.9.5 32.8.6 4.3 0 8.8 0 12.8-1.7 11-4.8 11.1-15.3 17-23.2.4-.5.9-1 1.5-1.4 1.9-1.2 3.7-.4 5.4.2 1.1.4 2.2.6 3.4.8 3.8.5 7.4-2.6 7.5-6.1.1-.1.1-.8.2-.9.9-4.4 4.9-8.8 9.7-10.2.6-.6 5.3-1.3 5.9-1.9 1.6-.6 3.3-1.1 4.6-2.4 1.2-1.1 2-2.5 2.7-4 4.5-8.7 8.2-17.7 11.3-27 1.5-4.3 3-8.9 2.3-13.5-.8-5.4-4.4-9.8-6.1-15-1.3-4.1-1.4-8.3-1.1-12.4.3-6.7 1.3-13.2-1.4-19.4-1.4-3.3-3.7-6.2-6.3-8.8-3.9-4-8.8-7.8-14.3-8.5-3.1-.4-6.1.2-8.8 1-5.3 1.6-10.8 3.1-14.9 6.2-4.1 3-11.1.6-15.6 3.7-5.2 3.7-13.4 9.8-22.1 10.5z"/><path class="st0" d="M331.7 260.4c-31.5 1-58.3 11.6-83.7 22.9-1 .5-2.1.9-3.3 1.2-2.8.9-6 1.4-9.2 1.6-3.4.2-6.4.7-9.1 1.7-6.1 2.3-9.1 6.2-13.6 8-.2.2-.5.3-.8.6-3.4 2.6-9.3 5.4-12.6 8.2-3.5 3-11 7.3-14.6 10.7-9.9 9.7-11.1 17.8-14.9 30.5-1.8 5.8-3.5 11.6-6 17.4-.8 1.8-1.7 3.6-2.6 5.4-1.2 2.3-2.5 4.7-2.7 7.2-.4 4.3 2.1 7.5 4.9 10.4 5.1 5.1 14.4 8.5 25.6 11.2 35 8.4 81.2 8.4 108.3 9.7 12.6.6 25.2 1.1 37.8 1.6 5 .2 10.2.3 14.8-1.7 12.7-5.6 11.9-18.4 18.4-27.8.4-.6 1-1.2 1.7-1.6 2.2-1.4 4.3-.3 6.2.5 1.3.5 2.6.9 4 1.1 4.4.8 8.7-2.8 8.4-7.1.1-.1 0-.9.1-1 .4-5 4.8-10 10.2-11.3.5-.5 6.2-1.2 6.6-1.7 1.8-.5 3.7-1 5.2-2.3 1.3-1.2 2.2-2.8 2.9-4.4 4.7-9.6 8.8-19.5 12.4-29.5 1.8-5 3.6-10.2 2.8-15.4-1-6.2-5.4-11.1-7.4-17.1-1.6-4.7-1.4-9.6-.9-14.4.8-7.8 2.5-15.5-.3-22.8-1.5-3.8-4-7.3-6.9-10.4-4.1-4.5-9.5-8.8-15.5-9.4-3.4-.3-6.7.7-9.6 1.9-5.7 2.3-11.6 4.5-15.9 8.5-4.2 4-12.2.9-16.9 4.9-5.3 4.8-14.2 12.4-23.8 12.7z"/><path class="st0" d="M333.5 254.5c-33.7-.2-63.7 8-92.6 17.5-1.2.4-2.4.7-3.7 1-3.1.7-6.5 1.2-9.8 1.5-3.6.3-6.8 1-9.6 2.4-6.4 3-10 7.5-13.9 11.3l-.8.8c-3.5 3.4-9.1 7-12.8 10.4-3.9 3.6-11.1 8.3-15 12.3-10.3 10.5-13.2 20.2-18.1 33.6-2.3 6.4-4.6 12.7-7.4 19.1-.9 2-1.9 4-2.9 6-1.3 2.6-2.7 5.2-2.8 8-.2 4.8 3 8.3 6.5 11.3 6.2 5.3 15.9 9 27.1 12.1 36.7 10.1 83.1 11.1 114 13.1 14.3.9 28.6 1.7 42.8 2.5 5.7.3 11.6.6 16.8-1.8 14.5-6.5 12.7-21.5 19.8-32.5.5-.7 1.1-1.4 1.9-1.9 2.5-1.6 4.8-.2 7 .8 1.4.6 2.9 1.1 4.5 1.5 5 1.2 9.9-3.1 9.4-8 .1 0-.1-1.1 0-1.1 0-5.7 4.7-11.3 10.7-12.3.4-.4 7-1 7.4-1.4 2-.4 4.1-.9 5.8-2.2 1.5-1.2 2.3-3 3.1-4.7 4.9-10.5 9.3-21.2 13.4-32.1 2.1-5.6 4.2-11.5 3.2-17.4-1.2-7-6.4-12.4-8.7-19.2-1.8-5.4-1.5-10.8-.7-16.3 1.3-8.9 3.7-17.7.9-26.1-1.5-4.4-4.4-8.4-7.5-12-4.4-5-10.2-9.9-16.8-10.2-3.8-.2-7.3 1.2-10.5 2.7-6.1 3-12.5 5.9-16.9 10.8-4.4 4.9-13.3 1.2-18.2 6.1-5.5 5.4-15 14.4-25.6 14.4z"/><path class="st0" d="M335.4 248.6c-35.9-1.3-69.2 4.5-101.5 12.1-1.3.3-2.7.6-4.1.8-3.3.6-7 1-10.5 1.5-3.7.5-7.2 1.4-10.2 3-6.8 3.7-10.3 9.6-14.3 14.5-.2.3-.5.6-.8 1-3.6 4.3-8.9 8.5-13 12.5-4.3 4.3-11.1 9.3-15.4 13.9-10.7 11.4-15.3 22.6-21.2 36.7-2.9 6.9-5.6 13.8-8.8 20.7-1 2.2-2.1 4.4-3.1 6.5-1.4 2.8-2.9 5.8-2.9 8.8 0 5.3 4 9.1 8 12.2 7.2 5.5 17.3 9.6 28.5 13.1 38.4 11.8 84.9 13.8 119.7 16.5 16 1.2 31.9 2.4 47.9 3.5 6.3.4 13 .8 18.8-1.8 16.3-7.4 13.6-24.6 21.2-37.1.5-.8 1.2-1.6 2-2.1 2.8-1.8 5.4-.1 7.9 1.1 1.6.8 3.3 1.4 5 1.9 5.6 1.5 11.1-3.4 10.3-9 .1 0-.1-1.2-.1-1.3-.5-6.3 4.6-12.5 11.2-13.4.3-.3 7.8-.8 8.1-1.2 2.2-.3 4.6-.7 6.4-2.2 1.6-1.3 2.5-3.2 3.4-5.1 5.1-11.4 9.9-22.9 14.4-34.6 2.4-6.2 4.9-12.8 3.7-19.4-1.4-7.8-7.5-13.8-10-21.3-2-6-1.5-12.1-.4-18.2 1.7-9.9 5-19.9 2-29.5-1.6-5-4.7-9.5-8.2-13.6-4.7-5.5-10.8-11-18.1-11.1-4.1-.1-7.9 1.6-11.3 3.6-6.6 3.8-13.4 7.3-17.9 13.1-4.5 5.9-14.4 1.5-19.5 7.3-5.5 6.5-15.7 17-27.2 16.6z"/><path class="st0" d="M337.3 242.7c-38.1-2.5-74.6 1-110.4 6.6-1.4.2-2.9.4-4.4.6-3.6.5-7.5.8-11.1 1.4-3.9.6-7.6 1.7-10.7 3.6-7.1 4.4-10.5 11.6-14.6 17.8-.3.4-.5.8-.8 1.2-3.6 5.2-8.8 10.1-13.2 14.7-4.7 5-11.2 10.3-15.9 15.4-11.2 12.3-17.5 25-24.3 39.8-3.4 7.4-6.7 14.9-10.2 22.3-1.1 2.4-2.3 4.7-3.4 7.1-1.5 3.1-3.1 6.3-3 9.6.2 5.8 5 9.9 9.6 13.1 8.3 5.7 18.7 10.2 30 14.1 40 13.6 86.7 16.6 125.4 19.9 17.6 1.5 35.3 3 52.9 4.4 7 .6 14.3 1.1 20.7-1.8 18.1-8.2 14.4-27.7 22.6-41.7.6-1 1.3-1.8 2.2-2.4 3.1-2 6 0 8.7 1.4 1.8.9 3.6 1.7 5.5 2.2 6.2 1.8 12.4-3.6 11.2-9.9l-.2-1.4c-.9-7 4.5-13.7 11.7-14.4.2-.2 8.6-.7 8.8-.9 2.4-.3 5-.6 7-2.1 1.7-1.4 2.7-3.5 3.6-5.5 5.4-12.3 10.5-24.7 15.4-37.1 2.7-6.8 5.5-14.1 4.1-21.3-1.6-8.6-8.5-15.1-11.3-23.4-2.2-6.6-1.5-13.4-.2-20.2 2.2-11 6.2-22.1 3.2-32.8-1.6-5.6-5.1-10.6-8.8-15.1-5-6-11.5-12.1-19.3-12-4.4 0-8.5 2.1-12.1 4.4-7 4.5-14.2 8.7-18.8 15.4-4.7 6.8-15.5 1.9-20.8 8.5-5.8 7.4-16.7 19.3-29.1 18.5z"/><path class="st0" d="M339.2 236.8c-40.4-3.6-80.1-2.6-119.4 1.2-1.6.2-3.2.3-4.8.4-3.9.3-7.9.7-11.8 1.4-4.1.7-7.9 2-11.2 4.2-7.5 5-10.7 13.6-14.9 21.1-.3.5-.5.9-.8 1.4-3.6 6.1-8.6 11.6-13.4 16.9-5.1 5.6-11.3 11.3-16.3 17-11.6 13.1-19.6 27.3-27.4 42.8-4 7.9-7.8 15.9-11.6 24-1.2 2.5-2.5 5.1-3.7 7.6-1.6 3.3-3.3 6.8-3.1 10.5.4 6.3 5.9 10.7 11.2 14 9.4 6 20.1 10.9 31.4 15 41.7 15.4 88.5 19.3 131.1 23.4l57.9 5.4c7.6.7 15.7 1.3 22.7-1.9 19.8-9.1 15.3-30.8 24.1-46.4.6-1.1 1.4-2 2.4-2.7 3.4-2.2 6.6.1 9.5 1.7 1.9 1.1 4 2 6.1 2.6 6.9 2.1 13.6-3.9 12.2-10.9l-.3-1.5c-1.4-7.6 4.4-15 12.3-15.5.1-.1 9.5-.5 9.6-.6 2.6-.2 5.4-.4 7.6-2 1.9-1.4 2.9-3.7 3.8-5.9 5.6-13.2 11-26.4 16.4-39.7 3-7.4 6.1-15.4 4.6-23.3-1.8-9.4-9.5-16.5-12.6-25.5-2.4-7.2-1.6-14.6 0-22.1 2.6-12.1 7.4-24.3 4.3-36.1-1.7-6.2-5.4-11.7-9.4-16.7-5.2-6.5-12.2-13.1-20.6-12.9-4.8.1-9.1 2.5-12.9 5.2-7.4 5.2-15.1 10.1-19.8 17.8-4.8 7.8-16.7 2.2-22.1 9.7-6.3 8.2-17.8 21.6-31.1 20.4z"/><path class="st0" d="M381.6 398.6c.6-1.2 1.5-2.2 2.6-2.9 3.7-2.4 7.2.2 10.3 2.1 2.1 1.2 4.3 2.2 6.6 3 7.5 2.4 14.8-4.2 13.1-11.8l-.4-1.6c-1.8-8.3 4.3-16.2 12.8-16.5l10.3-.4c2.8-.1 5.9-.3 8.1-2 2-1.5 3.1-3.9 4-6.3 5.8-14.1 11.6-28.1 17.4-42.2 3.3-8.1 6.7-16.7 5-25.3-2-10.2-10.6-17.8-13.9-27.6-6.9-20.4 11-42.6 5.7-63.5-1.7-6.8-5.7-12.8-10.1-18.3-5.5-7.1-12.9-14.2-21.9-13.7-5.1.3-9.7 3-13.8 6.1-7.8 6-16 11.5-20.8 20.1-5 8.7-17.8 2.5-23.4 10.8-6.1 9-18.2 23.9-32.4 22.3-44.3-4.9-89-6.2-133.5-4-8.5.4-17.4 1.1-24.3 6.2-8.3 6.1-11.3 16.8-16 25.9-7.5 14.3-19.8 25.4-30.3 37.7-20.2 23.5-34 51.8-47.6 79.7-1.7 3.6-3.5 7.3-3.2 11.3.5 6.8 6.9 11.4 12.7 14.9 10.5 6.2 21.5 11.5 32.8 16 43.3 17.2 90.4 22.1 136.7 26.8 21 2.1 41.9 4.2 62.9 6.3 8.3.8 17.1 1.6 24.7-1.9 22.1-10.1 16.6-34 25.9-51.2z"/><path class="st0" d="M180.1 230.3c-8.8 6.9-13.3 17.7-19 27.3-2.3 3.9-4.9 7.7-7.5 11.4-7.5 10.7-15.6 20.9-24.3 30.7-9 10.3-17.9 20.9-23.9 32.9-2.5 4.9-4.4 9.8-6.6 14.9-4.4 10-9.7 20.4-13.3 30.5-.5 1.5-1 2.9-1.5 4.3-1.2 3.6-2.3 7.2-1.4 10.8 1.4 6.3 8.1 10.6 14.2 14 10.8 6.1 21.6 12 32.9 17 3.8 1.7 7.7 3.3 11.6 4.7 12 4.4 24.4 7.4 37 9.9 29.7 5.8 60.2 8.7 90.4 11.5 21.3 2 42.7 4 64 6.1 8.5.8 17.3 1.6 25.1-1.4 20.6-8.1 19.3-27.6 28.1-42.3.5-.9 1.1-1.7 1.7-2.6.7-1 1.7-1.9 2.8-2.6 3.8-2.1 7.3.2 10.6 1.9 2.2 1.1 4.4 1.9 6.8 2.5 2.9.7 5.8.1 8.1-1.3 3.6-2.3 5-6.6 4.9-11.3 0-.1-.3-1.7-.3-1.9-.1-8.8 3.1-17.1 9.2-20.1.5-.3 1.1-.5 1.7-.7-.1-.3 3.2-.7 3.3-1 .2-.4 5.1-.6 5.5-.7.1 0 1.9-.1 2-.2 3.2-.5 6.7-.6 9.4-2.3 2.4-1.5 4-3.9 5.4-6.1 1.1-1.7 2.2-3.3 3.3-5 .8-1.3 1.7-2.6 2.4-4s1.2-2.9 1.7-4.4c3.6-11.4 5.9-22.8 9.7-34.1 2.9-8.7 6.4-17.7 5.4-26.7-.8-7-4-13-6.8-19.2-1.5-3.2-2.8-6.5-3.6-10.1-.7-2.8-1-5.6-1.1-8.5-.3-6.1.4-12.2 1.3-18.3 2.1-13.3 5.9-26.9 2.1-39.8-2.1-7.1-6.4-13.3-11.2-19-6-7.1-14.3-13.8-22.9-12.9-.6.1-1.2.1-1.8.1-4.4.2-8.7-.1-12 3-.9.9-1.9 1.6-2.8 2.2-2.3 1.5-4.7 2.5-7.4 3.9s-5 4.1-7.1 5.1c-2.3 1.1-4.6 4.6-6.8 6.3-1 .7-1.8 1.9-2.6 3.3-1.4 2.6-3.4 4.4-5.6 5.5-1.5.7-3 1.4-4.7 1.9-2.5.7-5.4.7-7.8 1-2.6.3-4.7 1.1-6.4 3.2-2.1 2.7-4.6 6.4-7.7 10.1-.9 1.1-1.9 2.3-3.1 3.3-3.9 3.5-8.1 4.8-12.9 6.4-3.9 1.3-8 2.8-12.1 2.8-39.5-.3-81.3-4.6-120.9-.8-4.1.4-8.1.9-12.1 1.4-8.1.8-16.7 2.1-23.4 7.4z"/><path class="st0" d="M176.8 227.5c-9.4 7.7-15.3 18.6-21.9 28.7-2.7 4.1-5.6 8.1-8.4 12.3-8 11.7-15.4 23.7-24.9 34.4-9.5 10.5-19.7 20.9-25 33.5-2.2 5.2-3.4 10.3-5.2 15.6-3.6 10.5-9.5 21.5-11.8 31.9-.3 1.5-.6 3-.9 4.4-.6 3.6-1 7 .3 10.4 2.2 5.9 9.2 9.8 15.6 13.2 11.1 5.9 21.7 12.6 32.9 18.1 3.8 1.9 7.7 3.6 11.7 5.1 12.1 4.7 24.8 7.5 37.6 9.7 30.3 5.3 61.3 7.9 92.1 10.6 21.7 1.9 43.4 3.8 65.1 5.9 8.6.8 17.6 1.7 25.6-1 20.7-6.9 22-23.9 32.2-36.6.6-.8 1.2-1.5 1.9-2.2.8-.9 1.8-1.6 3-2.2 3.8-1.8 7.5.3 10.9 1.7 2.2.9 4.6 1.6 6.9 2 2.9.5 5.8-.2 8.1-1.8 3.5-2.5 4.9-6.9 4.9-11.7 0-.3-.2-1.8-.2-2.1.2-9.7 2.9-19.2 7.7-23.8.4-.4.9-.8 1.3-1.1-.1-.6 2.7-1.3 3-1.9.4-.7 5.2-1.1 6-1.3.3-.1 2-.2 2.2-.3 3.6-.7 7.5-.9 10.6-2.6 2.8-1.5 4.9-3.8 6.9-5.9 1.5-1.6 2.9-3.2 4.4-4.8 1.1-1.2 2.3-2.5 3.2-4.1.9-1.6 1.3-3.3 1.8-5 3.2-13.1 3.8-26 7.4-39 2.5-9.3 6.1-18.8 5.8-28.2-.3-7.3-2.6-13.7-4.6-20.3-1-3.4-1.9-6.9-2.4-10.7-.4-2.9-.6-5.9-.7-9-.2-6.4 0-12.9.5-19.3 1.1-14 3.7-28.2-1-41.6-2.6-7.3-7.1-13.8-12.3-19.7-6.8-7.6-16.6-14.4-25.6-12.2-.6.2-1.3.3-1.9.3-4.7.3-9.7-2-12.9 1.7-1 1.1-1.9 2-2.9 2.5-2.4 1.4-5.2 1.8-8.3 2.9-3.3 1.1-5.6 4.8-7.9 5-2.4.2-5.1 5.1-7.7 6-1.2.4-2.1 1.7-2.9 3.3-1.5 2.8-3.4 5.1-5.6 6.5-1.5 1-2.7 2-4.6 2.7-2.6 1-5.9.9-8.5.7-3-.2-5.3.3-7.2 2.3-2.5 2.6-5 6.9-8.4 11.1-1 1.3-2.1 2.6-3.3 3.6-4.4 3.6-9 3.3-14.3 4.5-4.4 1-8.7 3.2-13.1 3.6-38.7 3.5-81.8-3.3-120.7 3-4 .7-7.9 1.4-11.7 2.2-8 1.6-16.3 3.6-22.8 9z"/><path class="st0" d="M173.4 224.7c-9.9 8.6-17.2 19.5-24.8 30.1-3.1 4.3-6.3 8.6-9.3 13.1-8.5 12.8-15.1 26.6-25.6 38-9.9 10.7-21.6 20.9-26.1 34.2-1.9 5.5-2.4 10.7-3.8 16.3-2.8 11-9.2 22.7-10.4 33.4-.2 1.6-.3 3.1-.3 4.5-.1 3.6.2 6.8 2 10 3.1 5.4 10.4 8.9 17 12.3 11.4 5.8 21.8 13.1 33 19.1 3.8 2 7.7 3.9 11.7 5.6 12.2 5 25.3 7.5 38.3 9.6 30.9 4.8 62.4 7.2 93.7 9.6 22.1 1.7 44.2 3.6 66.2 5.6 8.7.8 17.8 1.7 26-.5 20.8-5.7 24.7-20.2 36.2-30.9.7-.6 1.4-1.3 2.2-1.9.9-.7 2-1.4 3.2-1.8 3.9-1.5 7.7.3 11.2 1.5 2.3.8 4.7 1.3 7.1 1.5 3 .3 5.8-.6 8-2.4 3.5-2.7 4.8-7.2 5-12 0-.4-.1-2-.1-2.4.4-10.8 2.6-21.4 6.1-27.6.3-.5.6-1.1 1-1.6-.2-.9 2.3-1.9 2.8-2.7.6-1.1 5.4-1.6 6.6-1.9.4-.1 2.1-.3 2.5-.4 4-.8 8.2-1.2 11.9-2.9 3.2-1.5 5.8-3.7 8.3-5.8 1.9-1.5 3.7-3.1 5.6-4.6 1.4-1.2 2.9-2.4 4-4.2 1-1.7 1.5-3.7 1.8-5.7 2.8-14.7 1.8-29.2 5-43.9 2.2-9.8 5.8-19.8 6.2-29.7.3-7.7-1.2-14.5-2.3-21.4-.6-3.6-1-7.3-1.3-11.3-.2-3.1-.2-6.2-.3-9.4-.1-6.8-.3-13.5-.3-20.2.1-14.6 1.4-29.5-4-43.3-3-7.6-7.9-14.3-13.5-20.3-7.6-8.1-18.9-14.8-28.4-11.4-.7.2-1.4.4-2.1.4-5.1.3-10.7-3.9-13.8.5-1 1.4-1.9 2.3-3 2.9-2.5 1.3-5.6 1.1-9.3 1.9-3.8.9-6.2 5.6-8.6 4.9-2.5-.7-5.6 5.6-8.6 5.8-1.3.1-2.4 1.4-3.3 3.2-1.5 3-3.4 5.7-5.5 7.5-1.5 1.3-2.5 2.7-4.4 3.6-2.7 1.3-6.4 1-9.1.4-3.4-.8-5.9-.4-7.9 1.4-2.8 2.6-5.4 7.3-9 12.1-1.1 1.4-2.2 2.8-3.6 3.9-5 3.7-9.9 1.7-15.8 2.6-4.8.7-9.4 3.6-14 4.4-37.8 6.9-82.4-2.1-120.6 6.8-3.9.9-7.7 1.9-11.4 3.1-7.7 2.2-15.6 4.8-22.1 10.4z"/><path class="st0" d="M170.1 221.9c-10.4 9.5-19.2 20.5-27.8 31.4-3.5 4.5-7 9.1-10.2 13.9-9 13.9-14.9 29.5-26.2 41.6-10.3 11-23.4 20.9-27.2 34.9-1.6 5.7-1.4 11.2-2.4 17-2 11.5-9 23.8-9 34.8 0 1.6.1 3.2.3 4.6.5 3.6 1.4 6.6 3.8 9.6 3.9 4.9 11.6 8.1 18.4 11.4 11.6 5.7 21.9 13.6 33.1 20.1 3.8 2.2 7.6 4.2 11.7 6 12.3 5.3 25.7 7.6 38.9 9.4 31.4 4.3 63.5 6.4 95.3 8.7 22.5 1.6 44.9 3.4 67.3 5.4 8.9.8 18.1 1.7 26.5-.1 21-4.5 27.4-16.6 40.3-25.2l2.4-1.5c1-.6 2.1-1.1 3.4-1.5 4-1.2 7.9.4 11.5 1.3 2.4.6 4.9.9 7.2 1 3 0 5.7-1 8-2.9 3.4-2.9 4.7-7.5 5-12.3v-2.6c.7-11.8 2.3-23.6 4.6-31.4.2-.7.4-1.4.7-2.1-.3-1.2 1.8-2.5 2.5-3.6.8-1.4 5.6-2 7.2-2.4.6-.1 2.2-.3 2.7-.5 4.4-.9 9-1.5 13.1-3.2 3.6-1.5 6.7-3.6 9.7-5.6 2.2-1.5 4.5-3 6.7-4.5 1.7-1.1 3.5-2.3 4.7-4.2 1.2-1.8 1.6-4.1 1.9-6.3 2.4-16.4-.2-32.4 2.7-48.7 1.9-10.4 5.5-20.9 6.5-31.2.8-8 .2-15.2-.1-22.5-.1-3.8-.1-7.7-.1-11.8 0-3.2.2-6.5.2-9.9 0-7.1-.7-14.2-1.1-21.2-.9-15.2-.9-30.8-7.1-45-3.4-7.8-8.6-14.8-14.6-21-8.4-8.5-21.2-15.3-31.1-10.6-.7.3-1.5.5-2.2.6-5.5.4-11.7-5.9-14.6-.7-1 1.7-2 2.7-3.2 3.2-2.7 1.2-6 .4-10.2.9-4.4.6-6.8 6.3-9.4 4.7-2.6-1.6-6.1 6-9.5 5.5-1.5-.2-2.7 1.2-3.7 3.2-1.6 3.1-3.4 6.4-5.4 8.5-1.5 1.5-2.3 3.3-4.2 4.5-2.8 1.7-6.9 1.1-9.8.1-3.8-1.3-6.5-1.2-8.7.5-3.2 2.5-5.9 7.7-9.7 13.1-1.1 1.5-2.3 3.1-3.9 4.2-5.5 3.8-10.9.2-17.2.7-5.2.4-10 3.9-15 5.3-36.8 10-83-.8-120.4 10.5-3.8 1.2-7.5 2.5-11.1 3.9-7.4 3-14.8 6.3-21.2 12z"/><path class="st0" d="M166.8 219.1c-11 10.4-21.2 21.4-30.7 32.8-3.9 4.7-7.7 9.5-11 14.8-9.5 15-14.7 32.4-26.9 45.2-10.7 11.3-25.2 20.9-28.3 35.5-1.3 6-.4 11.6-1 17.7-1.3 12-8.7 24.9-7.5 36.2.2 1.7.5 3.2.9 4.6 1 3.6 2.7 6.4 5.5 9.1 4.7 4.5 12.7 7.3 19.8 10.6 11.9 5.6 22 14.2 33.1 21.1 3.8 2.4 7.6 4.6 11.7 6.4 12.4 5.6 26.1 7.6 39.6 9.3 32 3.8 64.6 5.7 96.9 7.8 22.8 1.5 45.6 3.1 68.4 5.1 9 .8 18.3 1.7 26.9.4 21.1-3.3 30-12.9 44.4-19.4.8-.4 1.7-.8 2.6-1.1 1.1-.5 2.3-.8 3.6-1.1 4.1-.9 8.1.5 11.8 1.2 2.5.5 5 .6 7.4.5 3-.2 5.7-1.4 8-3.4 3.3-3.1 4.7-7.8 5-12.6 0-.7.1-2.2.1-2.9 1-12.8 2.1-25.8 3-35.1.1-.8.2-1.7.3-2.5-.3-1.5 1.4-3.1 2.2-4.5 1.1-1.8 5.7-2.5 7.7-3 .7-.2 2.3-.4 3-.6 4.8-1.1 9.8-1.9 14.4-3.6 4-1.5 7.6-3.5 11.1-5.4 2.6-1.4 5.2-2.9 7.9-4.3 2-1.1 4.1-2.3 5.5-4.3 1.4-2 1.8-4.5 2-6.9 2-18-2.2-35.6.4-53.6 1.6-11 5.2-21.9 6.9-32.6 1.3-8.3 1.6-15.9 2.2-23.6.3-4 .7-8.1 1.1-12.4.3-3.4.6-6.8.6-10.4 0-7.5-1.1-14.9-1.9-22.1-1.9-15.9-3.1-32.1-10.1-46.8-3.8-8.1-9.3-15.4-15.8-21.7-9.2-9-23.5-15.8-33.8-9.8-.8.4-1.6.7-2.4.7-5.9.4-12.6-7.8-15.5-1.9-1 2-2 3-3.3 3.5-2.8 1.1-6.4-.4-11.2-.1-4.9.3-7.4 7.1-10.2 4.6-2.7-2.5-6.6 6.5-10.5 5.3-1.7-.5-3 .9-4.1 3.1-1.6 3.3-3.4 7.1-5.3 9.5-1.5 1.8-2.1 3.9-4.1 5.3-2.9 2-7.4 1.1-10.4-.3-4.2-1.9-7-2-9.4-.4-3.5 2.4-6.3 8.2-10.4 14.1-1.2 1.7-2.4 3.4-4.1 4.5-6 3.9-11.8-1.4-18.7-1.2-5.7.1-10.7 4.2-16 6.1-36 12.8-83.6.5-120.2 14.3-3.7 1.4-7.3 3-10.8 4.7-7.1 3.8-14.2 7.7-20.4 13.6z"/><path class="st0" d="M163.5 216.3c-11.5 11.3-23.2 22.3-33.6 34.2-4.3 4.9-8.4 10-11.9 15.6-10 16-14.4 35.2-27.5 48.8C79.3 326.5 63.3 336 61 351.2c-1 6.3.6 12.1.4 18.3-.5 12.5-8.4 26-6.1 37.7.4 1.7.9 3.3 1.5 4.7 1.6 3.6 3.9 6.2 7.3 8.7 5.5 4 13.9 6.4 21.2 9.7 12.2 5.5 22.2 14.7 33.2 22.2 3.7 2.5 7.6 4.9 11.7 6.8 12.5 5.9 26.5 7.7 40.2 9.1 32.6 3.3 65.6 4.9 98.5 6.9 23.2 1.4 46.4 2.9 69.5 4.9 9.2.8 18.5 1.7 27.4.8 21.2-2.2 32.7-9.3 48.5-13.7.9-.3 1.9-.5 2.9-.8 1.2-.3 2.4-.6 3.8-.8 4.1-.6 8.2.5 12 1 2.6.3 5.1.3 7.6-.1 3-.4 5.7-1.7 7.9-3.9 3.3-3.3 4.6-8 5-12.9.1-.8.1-2.3.2-3.1 1.2-13.8 1.8-27.9 1.5-38.9 0-1 .1-2 0-3-.1-1.9 1-3.7 1.9-5.3 1.3-2.1 5.9-3 8.3-3.6.8-.2 2.4-.5 3.2-.7 5.2-1.2 10.6-2.2 15.6-3.9 4.5-1.5 8.5-3.4 12.6-5.2 3-1.4 6-2.7 9-4.1 2.3-1 4.7-2.2 6.3-4.4 1.5-2.1 1.9-4.9 2.1-7.5 1.6-19.7-4.1-38.8-2-58.5 1.3-11.5 4.9-23 7.3-34.1 1.8-8.6 3-16.7 4.4-24.7.8-4.2 1.6-8.5 2.3-13 .5-3.5.9-7.1 1-10.8.1-7.8-1.4-15.5-2.8-23.1-3-16.5-5.4-33.4-13.2-48.5-4.3-8.3-10-15.9-16.9-22.3-10-9.5-25.8-16.2-36.5-9-.8.5-1.6.8-2.5.9-6.2.5-13.6-9.7-16.4-3.1-1 2.3-2.1 3.4-3.4 3.8-2.9.9-6.8-1.1-12.1-1.1-5.5 0-8.1 7.8-10.9 4.4-2.9-3.4-7.1 7-11.4 5-1.9-.9-3.3.7-4.5 3.1-1.7 3.5-3.4 7.8-5.2 10.5-1.4 2.1-1.8 4.6-3.9 6.2-3 2.4-7.9 1.2-11.1-.6-4.5-2.5-7.6-2.8-10.2-1.3-3.9 2.4-6.7 8.6-11 15.1-1.2 1.8-2.5 3.7-4.4 4.8-6.6 4-12.7-2.9-20.2-3.1-6.1-.2-11.4 4.5-16.9 6.9-35.2 15.5-84.2 1.8-120 18-3.7 1.7-7.1 3.6-10.5 5.6-6.9 4.5-13.6 9.1-19.7 15.1z"/><path class="st0" d="M160.2 213.5c-11.9 12.2-25.1 23.2-36.6 35.6-4.7 5.1-9.1 10.5-12.8 16.5-10.4 17.1-14.1 38.1-28.2 52.5-11.5 11.8-28.9 21-30.6 36.9-.7 6.5 1.6 12.6 1.8 19 .3 13-8.1 27.1-4.6 39.1.5 1.8 1.2 3.4 2.1 4.8 2.1 3.6 5.1 6.1 9 8.3 6.3 3.6 15.1 5.6 22.6 8.9 12.5 5.4 22.3 15.2 33.2 23.2 3.7 2.7 7.6 5.2 11.7 7.2 12.6 6.2 26.9 7.8 40.9 8.9 33.2 2.8 66.7 4.2 100.1 6 23.6 1.2 47.1 2.7 70.6 4.7 9.3.8 18.8 1.7 27.9 1.3 21.3-1 35.3-5.7 52.5-8 1-.1 2-.3 3.1-.4 1.2-.2 2.6-.3 4-.4 4.2-.3 8.4.6 12.3.8 2.7.2 5.3 0 7.7-.6 3-.6 5.7-2.1 7.9-4.4 3.2-3.5 4.5-8.3 5-13.2.1-1 .2-2.4.3-3.4 1.5-14.9 1.5-30.1-.1-42.6-.1-1.1-.2-2.3-.4-3.4-.3-2.2.5-4.4 1.6-6.2 1.5-2.5 6-3.4 8.8-4.1 1-.2 2.5-.5 3.5-.8 5.6-1.3 11.4-2.5 16.9-4.2 4.9-1.5 9.4-3.3 14-5.1 3.4-1.3 6.8-2.6 10.1-3.9 2.6-1 5.3-2.1 7.1-4.4 1.7-2.3 2-5.3 2.2-8.1 1.2-21.4-6.1-42-4.3-63.4 1-12.1 4.6-24 7.6-35.6 2.3-9 4.4-17.4 6.7-25.8 1.2-4.4 2.5-8.9 3.5-13.6.8-3.7 1.3-7.4 1.4-11.3.2-8.2-1.8-16.2-3.6-24-4-17.1-7.7-34.7-16.2-50.3-4.7-8.6-10.8-16.4-18.1-23-10.9-9.9-28-16.6-39.2-8.2-.9.6-1.7 1-2.6 1-6.6.5-14.5-11.6-17.3-4.3-1 2.6-2.1 3.7-3.5 4.1-3 .8-7.2-1.8-13.1-2.1-6-.3-8.7 8.5-11.7 4.3-3-4.3-7.6 7.5-12.3 4.8-2.1-1.2-3.6.4-4.9 3.1-1.7 3.6-3.3 8.5-5.2 11.5-1.4 2.3-1.6 5.2-3.7 7.1-3.1 2.7-8.4 1.3-11.7-.9-4.9-3.1-8.2-3.6-11-2.2-4.2 2.3-7.1 9.1-11.7 16.1-1.3 2-2.7 4-4.7 5.2-7.1 4.1-13.6-4.4-21.6-5-6.5-.5-12.1 4.7-17.9 7.7-34.6 18.1-84.8 3.1-119.9 21.8-3.6 1.9-6.9 4.1-10.1 6.4-6.2 4.7-12.5 10-18.5 16.1z"/><path class="st0" d="M156.9 210.7c-12.4 13.1-27.1 24.1-39.5 37-5.1 5.3-9.8 10.9-13.6 17.3-10.9 18.2-13.9 41-28.8 56.1-11.9 12.1-30.8 21-31.7 37.5-.4 6.8 2.6 13 3.2 19.7 1.1 13.5-7.8 28.3-3.2 40.5.7 1.9 1.6 3.5 2.7 4.9 2.7 3.6 6.3 5.9 10.8 7.9 7.1 3.1 16.2 4.8 24 8 12.8 5.3 22.4 15.8 33.3 24.2 3.7 2.9 7.6 5.5 11.7 7.7 12.7 6.5 27.3 7.8 41.6 8.8 33.8 2.3 67.8 3.5 101.8 5 23.9 1.1 47.9 2.5 71.7 4.4 9.5.8 19 1.8 28.3 1.7 21.4-.2 38-2 56.6-2.3 1.1 0 2.2 0 3.3-.1 1.3 0 2.7 0 4.2-.1 4.3-.1 8.6.6 12.6.6 2.7 0 5.4-.3 7.9-1.1 3-.9 5.7-2.5 7.8-5 3.2-3.6 4.4-8.6 5-13.5.1-1.1.3-2.5.4-3.6 1.8-15.9 1.2-32.2-1.6-46.4-.3-1.3-.5-2.6-.7-3.9-.4-2.5.1-5 1.3-7.1 1.7-2.8 6.2-3.9 9.4-4.7 1.1-.3 2.6-.6 3.7-.9 6.1-1.5 12.2-2.8 18.1-4.5 5.3-1.5 10.3-3.2 15.4-4.9 3.8-1.3 7.5-2.5 11.3-3.8 2.9-1 6-2 7.9-4.5 1.9-2.4 2.2-5.6 2.3-8.7.8-23-8-45.2-6.6-68.2.7-12.7 4.3-25 8-37.1 2.8-9.3 5.8-18.2 8.9-26.9 1.6-4.6 3.4-9.3 4.6-14.1 1-3.8 1.7-7.7 1.8-11.7.3-8.5-2.1-16.8-4.4-24.9-5-17.8-9.9-36-19.2-52-5.1-8.8-11.5-16.9-19.2-23.7-11.7-10.4-30.3-17.1-42-7.4-.9.7-1.8 1.1-2.8 1.2-7 .6-15.4-13.5-18.2-5.6-1 2.9-2.2 4.1-3.6 4.4-3.2.7-7.6-2.5-14-3.1-6.6-.5-9.4 9.3-12.5 4.1-3.1-5.2-8 7.9-13.2 4.5-2.3-1.5-3.9.2-5.3 3-1.8 3.8-3.3 9.2-5.1 12.5-1.4 2.6-1.4 5.9-3.6 7.9-3.2 3.1-8.8 1.3-12.4-1.2-5.2-3.7-8.8-4.4-11.7-3-4.6 2.2-7.5 9.5-12.4 17.1-1.3 2.1-2.8 4.3-5 5.5-7.7 4.2-14.5-6-23.1-6.9-7-.8-12.9 4.9-18.8 8.5-34 20.6-85.3 4.4-119.7 25.5-3.5 2.2-6.7 4.6-9.8 7.3-6.1 5.9-12 11.8-17.9 18.1z"/><path class="st0" d="M153.6 207.9c-12.9 14-29.1 25.1-42.5 38.4-5.5 5.5-10.5 11.4-14.5 18.2-11.4 19.3-13.6 43.9-29.5 59.7-12.3 12.3-32.6 21-32.8 38.2-.1 7.1 3.6 13.5 4.6 20.4 1.8 14-7.5 29.4-1.7 42 .9 1.9 2 3.5 3.3 5 3.2 3.6 7.5 5.7 12.5 7.4 7.9 2.7 17.4 3.9 25.4 7.1 13 5.2 22.5 16.3 33.3 25.3 3.7 3 7.5 5.8 11.8 8.1 12.8 6.8 27.8 7.9 42.2 8.6 34.4 1.8 68.9 2.7 103.4 4.1 24.3 1 48.6 2.3 72.8 4.2 9.6.8 19.3 1.7 28.8 2.2 21.5 1.2 40.6 1.6 60.7 3.4l3.6.3c1.4.1 2.9.2 4.4.3 4.4.3 8.8.7 12.9.4 2.8-.2 5.5-.7 8-1.6 3-1.1 5.7-2.9 7.8-5.5 3.1-3.8 4.3-8.9 5-13.8.2-1.2.4-2.6.5-3.9 2-17 1-34.4-3.2-50.2-.4-1.4-.7-2.9-1-4.4-.5-2.8-.4-5.6 1-7.9 1.9-3.2 6.3-4.3 9.9-5.2 1.3-.3 2.7-.6 4-1 6.5-1.6 13-3.1 19.4-4.8 5.7-1.5 11.3-3.1 16.8-4.7 4.1-1.2 8.3-2.4 12.4-3.6 3.2-.9 6.6-2 8.6-4.6 2-2.5 2.3-6 2.4-9.3.4-24.7-9.8-48.5-9-73.1.5-13.2 4-26.1 8.4-38.5 3.3-9.6 7.2-18.9 11.2-28 2.1-4.8 4.2-9.7 5.8-14.7 1.2-4 2.1-8 2.3-12.2.4-8.9-2.5-17.5-5.2-25.9-6-18.4-12.2-37.3-22.3-53.8-5.5-9.1-12.2-17.3-20.3-24.4-12.5-10.8-32.6-17.5-44.7-6.6-.9.8-1.9 1.3-2.9 1.3-7.3.6-16.3-15.4-19.1-6.8-1 3.2-2.2 4.5-3.8 4.8-3.3.6-8-3.3-14.9-4.1-7.1-.8-10 10-13.3 4-3.3-6.1-8.5 8.4-14.1 4.3-2.5-1.8-4.2-.1-5.7 3-1.9 4-3.3 9.9-5 13.6-1.4 2.9-1.2 6.5-3.4 8.8-3.3 3.4-9.3 1.4-13-1.5-5.6-4.3-9.4-5.2-12.5-3.9-4.9 2.1-7.9 9.9-13.1 18.1-1.4 2.2-2.9 4.6-5.2 5.8-8.2 4.4-15.4-7.5-24.5-8.8-7.4-1-13.6 5.1-19.8 9.3-33.6 23-85.9 5.7-119.5 29.3-3.4 2.4-6.6 5.2-9.5 8.1-5.9 6.1-11.3 12.7-17.2 19.1z"/><path class="st0" d="M347.6 137.1c-1.5 2.4-3 4.8-5.5 6.1-8.7 4.5-16.3-9-26-10.7-7.8-1.3-14.4 5.3-20.7 10.1-33.3 25.5-86.5 7-119.3 33.1-10.2 8.1-17.1 19.7-25.7 29.4-18.8 21.2-46.5 34.4-60.8 58.8-11.9 20.3-13.4 46.8-30.1 63.3-12.7 12.6-34.5 21-33.9 38.8.2 7.3 4.7 13.9 6 21.1 2.6 14.5-7.3 30.5-.3 43.4 7.9 14.7 29.4 12.3 45 18.3 17.8 6.9 28.4 25.6 45.2 34.8 12.9 7.1 28.2 7.9 42.9 8.5 91.2 3.4 183.1 2.4 272.9 19 13.2 2.4 29.4 4.2 37.5-6.5 3.1-4 4.2-9.1 5.1-14.1 3.1-19.3 1.7-39.4-4.2-58-1.4-4.5-3-9.6-.6-13.6 2.1-3.5 6.5-4.8 10.5-5.8 18.9-4.7 37.8-9.5 56.7-14.2 3.5-.9 7.2-1.9 9.4-4.7 2.2-2.7 2.5-6.4 2.5-9.9 0-26.3-11.7-51.7-11.3-78 .4-24.4 11.1-47.4 22.2-69.1 4.5-8.9 9.2-18 9.7-28 .4-9.2-2.8-18.2-6-26.8-10.9-29.5-22.8-60.3-46.8-80.6-13.4-11.3-34.8-17.9-47.4-5.8-8 7.7-20-17.2-23-6.5-3.1 10.7-8.8 1.6-19.8 0-7.7-1.1-10.6 10.8-14 3.8-3.4-7-9 8.9-15 4s-8 10.4-11 17.5c-1.3 3.2-.9 7.1-3.2 9.7-3.4 3.8-9.7 1.4-13.7-1.8-16.1-12.8-18.7.4-27.3 14.4z"/></svg>